<svg width="70" height="70" fill="none" xmlns="http://www.w3.org/2000/svg"><path d="M65.898 12.579H39.785v-2.95l.39-.105a1.367 1.367 0 00-.39-2.686V2.792l.39-.104a1.367 1.367 0 10-.708-2.641l-.413.11A1.36 1.36 0 0038.418 0h-6.836c-.755 0-1.367.613-1.367 1.368v1.158l-.39.104a1.367 1.367 0 00.354 2.689l.036-.003v4.046l-.39.104a1.367 1.367 0 00.354 2.688l.036-.002v.427H4.102A4.106 4.106 0 000 16.68v51.953C0 69.388.613 70 1.368 70h67.265c.755 0 1.367-.612 1.367-1.367V16.68a4.106 4.106 0 00-4.102-4.101zM2.735 38.462c.943-.15 1.594-.46 2.147-.723.67-.32 1.154-.55 2.186-.55s1.516.23 2.186.55c.764.364 1.713.817 3.364.817 1.65 0 2.6-.453 3.362-.817.67-.32 1.155-.55 2.187-.55 1.031 0 1.516.23 2.186.55.763.364 1.713.817 3.363.817s2.6-.453 3.363-.817c.654-.312 1.132-.538 2.11-.55a1.365 1.365 0 00.99 2.309l.036-.003v4.046l-.39.104a1.367 1.367 0 00.354 2.688l.036-.002v4.046l-.39.104a1.366 1.366 0 00-.636.381c-1.602.014-2.535.457-3.286.815-.67.32-1.155.55-2.187.55-1.031 0-1.516-.23-2.186-.55-.763-.363-1.713-.816-3.363-.816s-2.6.453-3.363.817c-.67.319-1.155.55-2.187.55-1.031 0-1.516-.231-2.186-.55-.763-.364-1.713-.817-3.363-.817s-2.6.453-3.363.816c-.34.162-.631.301-.97.399V38.462zm30.214-20.166l4.102-1.1v4.006L32.949 22.3v-4.005zm34.317 17.373c-.34-.098-.631-.236-.97-.398-.764-.364-1.714-.817-3.364-.817s-2.6.453-3.363.817c-.67.32-1.155.55-2.186.55-1.032 0-1.516-.23-2.186-.55-.764-.364-1.714-.817-3.364-.817s-2.6.453-3.363.817c-.67.32-1.154.55-2.186.55s-1.516-.23-2.186-.55c-.763-.364-1.713-.817-3.363-.817l-.092.002a1.367 1.367 0 00-.858-.275v-4.045l.39-.105a1.367 1.367 0 00-.39-2.686V23.3l.39-.104a1.367 1.367 0 00.466-2.413l.094-.001c1.031 0 1.516.23 2.186.55.763.364 1.713.817 3.363.817s2.6-.453 3.363-.817c.67-.32 1.155-.55 2.187-.55 1.031 0 1.515.23 2.186.55.763.364 1.713.817 3.363.817s2.6-.453 3.363-.817c.67-.32 1.154-.55 2.186-.55s1.516.23 2.187.55c.552.264 1.204.573 2.147.724v13.613zM37.05 48.545l-4.102 1.1v-4.006l4.102-1.099v4.005zm0-13.671l-4.102 1.099v-4.005l4.102-1.1v4.006zm-4.102 3.93l4.102-1.1v4.005l-4.102 1.1v-4.006zm0-13.672l4.102-1.1v4.006l-4.102 1.099v-4.005zm0 27.343l4.102-1.1v2.5L35 58.282l-2.052-4.406v-1.401zm6.836-1.832l.39-.104a1.367 1.367 0 00-.39-2.686v-4.046l.39-.104a1.367 1.367 0 00-.39-2.686v-3.742c.258-.052.565-.087.95-.087 1.031 0 1.516.231 2.186.55.763.365 1.713.818 3.363.818s2.6-.453 3.363-.817c.67-.32 1.155-.55 2.187-.55 1.031 0 1.515.23 2.186.55.763.364 1.713.817 3.363.817s2.6-.453 3.363-.817c.67-.32 1.155-.55 2.186-.55 1.032 0 1.516.23 2.187.55.552.263 1.204.572 2.147.724v13.613c-.34-.098-.631-.237-.97-.399-.764-.363-1.714-.816-3.364-.816s-2.6.453-3.363.816c-.67.32-1.155.55-2.186.55-1.032 0-1.516-.23-2.186-.55-.764-.363-1.714-.816-3.364-.816s-2.6.453-3.363.816c-.67.32-1.154.55-2.186.55s-1.516-.23-2.186-.55c-.763-.363-1.713-.816-3.363-.816a7.99 7.99 0 00-.95.055v-.273zm27.48-33.963v2.583c-.338-.098-.63-.237-.97-.399-.763-.364-1.713-.817-3.363-.817s-2.6.453-3.363.817c-.67.32-1.155.55-2.186.55-1.032 0-1.516-.23-2.186-.55-.764-.364-1.714-.817-3.364-.817s-2.6.453-3.363.817c-.67.32-1.154.55-2.186.55s-1.516-.23-2.186-.55c-.764-.364-1.713-.817-3.363-.817-.334 0-.648.02-.95.056v-1.639l.39-.104c.517-.139.883-.556.984-1.047H65.9c.753 0 1.367.613 1.367 1.367zM37.05 14.366l-4.102 1.099V11.46l4.102-1.099v4.005zm-4.102-9.742l4.102-1.099V7.53l-4.102 1.1V4.623zM4.102 15.313h26.113v.885l-.39.104a1.367 1.367 0 00-.966 1.674.935.935 0 00.025.08c-1.418.064-2.28.473-2.981.808-.573.273-1.025.488-1.82.54a1.367 1.367 0 10.174 2.728c1.32-.084 2.153-.481 2.822-.8.67-.32 1.155-.55 2.186-.55.386 0 .692.034.95.087v2.164l-.39.105a1.367 1.367 0 00.354 2.688l.036-.003v4.046l-.39.105a1.367 1.367 0 00.354 2.688l.036-.003v1.85a7.948 7.948 0 00-.95-.055c-1.65 0-2.6.453-3.363.816-.67.32-1.154.55-2.186.55s-1.516-.23-2.186-.55c-.764-.363-1.713-.816-3.363-.816s-2.6.453-3.363.816c-.67.32-1.155.55-2.187.55-1.031 0-1.516-.23-2.186-.55-.763-.363-1.713-.816-3.363-.816s-2.6.453-3.363.816c-.34.162-.631.301-.97.399V22.056c.942-.151 1.594-.46 2.146-.724.67-.32 1.155-.55 2.187-.55 1.031 0 1.516.23 2.186.55.67.319 1.502.716 2.823.8a1.367 1.367 0 10.174-2.729c-.795-.05-1.248-.266-1.82-.54-.763-.363-1.713-.816-3.363-.816s-2.6.453-3.364.817c-.339.162-.63.3-.97.398V16.68a1.37 1.37 0 011.368-1.367zm21.26 51.953h-5.548l-5.618-4.774 5.522-2.226 5.643 5.875v1.125zm-13.29-2.99l3.519 2.99h-4.905l1.386-2.99zm34.752-.535l5.852 1.879.126 1.645h-4.843l-1.135-3.524zm8.72 3.525l-.15-1.967 3.462-2.278 3.271 4.245h-6.583zm-1.78-4.169l-5.84-1.874 4.946-3.099 3.928 2.978-3.033 1.995zm11.816 4.169l-5.332-6.92a1.371 1.371 0 00-.257-.254l-6.22-4.717a1.367 1.367 0 00-1.553-.069l-8.237 5.161a1.37 1.37 0 00-.576 1.578l1.681 5.22h-16.99v-1.674a1.37 1.37 0 00-.381-.948l-6.666-6.938a1.367 1.367 0 00-1.497-.32l-8.476 3.417c-.322.13-.583.378-.73.693l-2.674 5.77H2.735V54.87c.943-.15 1.594-.46 2.147-.723.67-.32 1.154-.55 2.186-.55 1.031 0 1.516.23 2.186.55.764.364 1.713.816 3.364.816 1.65 0 2.6-.453 3.362-.816.67-.32 1.155-.55 2.187-.55 1.031 0 1.516.23 2.186.55.763.364 1.713.816 3.363.816s2.6-.453 3.363-.817c.67-.319 1.155-.55 2.186-.55.386 0 .692.034.95.087v.496c0 .2.044.396.128.577L33.76 62.1a1.367 1.367 0 002.479 0l3.418-7.345c.084-.18.127-.378.127-.577v-.496c.258-.053.565-.087.95-.087 1.031 0 1.516.231 2.186.55.763.364 1.713.817 3.363.817s2.6-.453 3.363-.816c.67-.32 1.155-.55 2.187-.55 1.031 0 1.515.23 2.186.55.763.364 1.713.816 3.363.816s2.6-.453 3.363-.816c.67-.32 1.155-.55 2.186-.55 1.032 0 1.516.23 2.187.55.552.263 1.204.572 2.147.723v12.397H65.58z" fill="#fff"/><path d="M11.348 45.288a1.367 1.367 0 000-2.734h-.001a1.367 1.367 0 100 2.734zm13.125 1.504a1.367 1.367 0 000-2.734h-.001a1.367 1.367 0 100 2.734zm22.011-2.666a1.367 1.367 0 000-2.734 1.367 1.367 0 100 2.734zm13.466 2.939a1.367 1.367 0 000-2.734 1.367 1.367 0 100 2.734zM18.168 20.782a1.367 1.367 0 000-2.734h-.001a1.367 1.367 0 100 2.734z" fill="#fff"/></svg>