<svg width="70" height="70" viewBox="0 0 70 70" fill="none" xmlns="http://www.w3.org/2000/svg">
<path d="M65.8984 12.5787H39.7853V9.6283L40.1748 9.52398C40.9042 9.32847 41.337 8.57885 41.1415 7.8496C40.9746 7.22658 40.4028 6.82135 39.7853 6.83789V2.79242L40.1748 2.68811C40.9042 2.4926 41.337 1.74298 41.1415 1.01373C40.946 0.284344 40.1962 -0.14864 39.4671 0.0470023L39.0538 0.157743C38.8638 0.0576663 38.6478 0.000381711 38.4181 0.000381711H31.5822C30.8273 0.000381711 30.215 0.612602 30.215 1.36756V2.5261L29.8257 2.63041C29.0963 2.82592 28.6634 3.57554 28.8589 4.30479C29.0226 4.91578 29.5749 5.31855 30.1787 5.31855C30.1907 5.31855 30.2029 5.3165 30.215 5.31623V9.36197L29.8257 9.46628C29.0963 9.66179 28.6634 10.4114 28.8589 11.1407C29.0226 11.7517 29.5749 12.1544 30.1787 12.1544C30.1907 12.1544 30.2029 12.1524 30.215 12.1521V12.5787H4.10187C1.84029 12.5787 0.000488281 14.4186 0.000488281 16.6802V68.6328C0.000488281 69.3877 0.612709 70 1.36766 70H68.6328C69.3877 70 69.9999 69.3877 69.9999 68.6328V16.6802C69.9999 14.4186 68.16 12.5787 65.8984 12.5787ZM2.73484 38.4625C3.6775 38.3115 4.32924 38.0022 4.88157 37.7389C5.55204 37.4193 6.03643 37.1885 7.06796 37.1885C8.09963 37.1885 8.58402 37.4193 9.25434 37.7389C10.0175 38.1027 10.9674 38.5556 12.6175 38.5556C14.2675 38.5556 15.2173 38.1027 15.9804 37.7389C16.6508 37.4194 17.1351 37.1885 18.1668 37.1885C19.1983 37.1885 19.6827 37.4193 20.3532 37.7389C21.1164 38.1027 22.0661 38.5556 23.7162 38.5556C25.3662 38.5556 26.3161 38.1027 27.0793 37.7389C27.7327 37.4273 28.2108 37.2008 29.1895 37.1894C28.8732 37.523 28.7314 38.0074 28.8591 38.484C29.0227 39.095 29.5751 39.4978 30.1788 39.4978C30.1908 39.4978 30.203 39.4957 30.2152 39.4954V43.541L29.8258 43.6454C29.0964 43.8409 28.6636 44.5905 28.8591 45.3197C29.0227 45.9307 29.5751 46.3335 30.1788 46.3335C30.1908 46.3335 30.203 46.3314 30.2152 46.3312V50.3769L29.8258 50.4812C29.5726 50.549 29.3565 50.6847 29.1886 50.862C27.5868 50.8761 26.6536 51.3193 25.9026 51.6774C25.2321 51.997 24.7477 52.2279 23.7162 52.2279C22.6846 52.2279 22.2003 51.997 21.5299 51.6774C20.7666 51.3136 19.8169 50.8606 18.1668 50.8606C16.5168 50.8606 15.5669 51.3136 14.8037 51.6775C14.1332 51.997 13.649 52.2279 12.6175 52.2279C11.5859 52.2279 11.1015 51.997 10.4311 51.6774C9.66791 51.3136 8.71814 50.8606 7.06796 50.8606C5.41805 50.8606 4.46814 51.3136 3.70485 51.6774C3.36565 51.8391 3.07376 51.978 2.7347 52.0759V38.4625H2.73484ZM32.9494 18.2958L37.0509 17.1968V21.2018L32.9494 22.3009V18.2958ZM67.2656 35.6693C66.9265 35.5714 66.6346 35.4326 66.2953 35.2707C65.5322 34.9069 64.5822 34.454 62.9322 34.454C61.2822 34.454 60.3324 34.9069 59.5692 35.2707C58.8988 35.5904 58.4144 35.8212 57.3828 35.8212C56.3513 35.8212 55.8669 35.5904 55.1966 35.2707C54.4333 34.9069 53.4835 34.454 51.8335 34.454C50.1834 34.454 49.2335 34.9069 48.4704 35.2707C47.8 35.5904 47.3157 35.8212 46.284 35.8212C45.2525 35.8212 44.7681 35.5904 44.0977 35.2707C43.3346 34.9069 42.3848 34.454 40.7346 34.454C40.7033 34.454 40.6738 34.4555 40.6429 34.4559C40.3999 34.2731 40.0988 34.1728 39.7851 34.1811V30.1356L40.1746 30.0313C40.904 29.8358 41.3369 29.0862 41.1414 28.3569C40.9744 27.7339 40.4027 27.3286 39.7851 27.3452V23.2999L40.1746 23.1956C40.904 23.0001 41.3369 22.2505 41.1414 21.5212C41.0591 21.2139 40.8775 20.9601 40.6414 20.7829C40.6723 20.7825 40.7028 20.7818 40.7346 20.7818C41.7662 20.7818 42.2505 21.0126 42.921 21.3323C43.6842 21.6961 44.6339 22.149 46.284 22.149C47.934 22.149 48.8838 21.6962 49.647 21.3323C50.3174 21.0128 50.8018 20.7818 51.8335 20.7818C52.865 20.7818 53.3494 21.0126 54.0199 21.3323C54.783 21.6961 55.7328 22.149 57.3828 22.149C59.0329 22.149 59.9827 21.6961 60.7458 21.3323C61.4161 21.0128 61.9005 20.7818 62.9322 20.7818C63.9639 20.7818 64.4483 21.0126 65.1186 21.3323C65.6709 21.5956 66.3228 21.9047 67.2655 22.0559L67.2656 35.6693ZM37.0509 48.5452L32.9494 49.6442V45.6391L37.0509 44.54V48.5452ZM37.0509 34.8736L32.9494 35.9726V31.9675L37.0509 30.8684V34.8736ZM32.9494 38.8034L37.0509 37.7043V41.7093L32.9494 42.8084V38.8034ZM32.9494 25.1316L37.0509 24.0326V28.0377L32.9494 29.1368V25.1316ZM32.9494 52.475L37.0509 51.3759V53.8755L35.0001 58.2825L32.9494 53.8755V52.475ZM39.7853 50.6432L40.1748 50.5389C40.9042 50.3434 41.337 49.5938 41.1415 48.8645C40.9746 48.2415 40.4028 47.836 39.7853 47.8527V43.8074L40.1748 43.7031C40.9042 43.5076 41.337 42.7579 41.1415 42.0287C40.9746 41.4055 40.4028 41 39.7853 41.0168V37.2754C40.043 37.2227 40.3496 37.1885 40.7348 37.1885C41.7664 37.1885 42.2508 37.4194 42.9211 37.7389C43.6843 38.1027 44.6341 38.5556 46.2841 38.5556C47.9342 38.5556 48.8841 38.1027 49.6472 37.7389C50.3176 37.4193 50.8019 37.1885 51.8336 37.1885C52.8651 37.1885 53.3495 37.4193 54.02 37.7389C54.7832 38.1027 55.7329 38.5556 57.383 38.5556C59.033 38.5556 59.9828 38.1027 60.7461 37.7389C61.4164 37.4193 61.9008 37.1885 62.9323 37.1885C63.964 37.1885 64.4484 37.4193 65.1187 37.7389C65.6711 38.0022 66.3229 38.3113 67.2656 38.4625V52.0759C66.9265 51.978 66.6346 51.8391 66.2953 51.6774C65.5322 51.3136 64.5824 50.8606 62.9322 50.8606C61.2823 50.8606 60.3324 51.3136 59.5691 51.6774C58.8988 51.997 58.4144 52.2279 57.3828 52.2279C56.3513 52.2279 55.8669 51.997 55.1966 51.6774C54.4333 51.3136 53.4835 50.8606 51.8335 50.8606C50.1834 50.8606 49.2335 51.3136 48.4704 51.6774C47.7999 51.997 47.3155 52.2279 46.284 52.2279C45.2525 52.2279 44.7682 51.997 44.0977 51.6775C43.3346 51.3136 42.3848 50.8606 40.7346 50.8606C40.4009 50.8606 40.0875 50.8798 39.7851 50.9161V50.6432H39.7853ZM67.2656 16.6802V19.2626C66.9265 19.1647 66.6346 19.026 66.2953 18.8641C65.5322 18.5003 64.5822 18.0474 62.9322 18.0474C61.2822 18.0474 60.3322 18.5003 59.5691 18.8641C58.8988 19.1837 58.4144 19.4145 57.3828 19.4145C56.3513 19.4145 55.8669 19.1837 55.1966 18.8641C54.4333 18.5003 53.4835 18.0474 51.8335 18.0474C50.1834 18.0474 49.2335 18.5003 48.4704 18.8641C47.7999 19.1837 47.3155 19.4145 46.284 19.4145C45.2525 19.4145 44.7681 19.1837 44.0977 18.8641C43.3344 18.5003 42.3847 18.0474 40.7346 18.0474C40.4009 18.0474 40.0875 18.0665 39.7851 18.1027V16.464L40.1746 16.3597C40.6917 16.2212 41.0584 15.8037 41.1591 15.3129H65.8983C66.6523 15.313 67.2656 15.9263 67.2656 16.6802ZM37.0509 14.3661L32.9494 15.465V11.46L37.0509 10.361V14.3661ZM32.9494 4.62416L37.0509 3.52509V7.53023L32.9494 8.6293V4.62416ZM4.10187 15.313H30.215V16.1977L29.8257 16.302C29.0963 16.4975 28.6634 17.2471 28.8589 17.9764C28.8663 18.0037 28.8753 18.0303 28.8842 18.0568C27.4665 18.1202 26.6049 18.5293 25.9026 18.864C25.33 19.1369 24.8776 19.3525 24.0829 19.4032C23.3293 19.4513 22.7575 20.101 22.8055 20.8546C22.8517 21.5785 23.4531 22.1347 24.1686 22.1347C24.1978 22.1347 24.2274 22.1337 24.2569 22.1318C25.5779 22.0476 26.4102 21.6508 27.079 21.332C27.7495 21.0123 28.2339 20.7816 29.2654 20.7816C29.6505 20.7816 29.9572 20.8157 30.2149 20.8685V23.0333L29.8255 23.1376C29.0961 23.3331 28.6633 24.0827 28.8588 24.812C29.0225 25.423 29.5748 25.8258 30.1785 25.8258C30.1906 25.8258 30.2027 25.8237 30.2149 25.8234V29.8692L29.8255 29.9735C29.0961 30.169 28.6633 30.9186 28.8588 31.6479C29.0225 32.2589 29.5748 32.6616 30.1785 32.6616C30.1906 32.6616 30.2027 32.6596 30.2149 32.6593V34.5092C29.9123 34.473 29.5991 34.4537 29.2654 34.4537C27.6155 34.4537 26.6656 34.9067 25.9024 35.2705C25.2321 35.59 24.7477 35.8209 23.716 35.8209C22.6845 35.8209 22.2001 35.5901 21.5298 35.2705C20.7665 34.9067 19.8167 34.4537 18.1667 34.4537C16.5166 34.4537 15.5667 34.9067 14.8036 35.2705C14.1332 35.5901 13.6489 35.8209 12.6173 35.8209C11.5856 35.8209 11.1013 35.5901 10.4309 35.2705C9.66778 34.9067 8.71786 34.4537 7.06782 34.4537C5.41778 34.4537 4.468 34.9067 3.70471 35.2705C3.36551 35.4322 3.07362 35.5711 2.73456 35.669V22.0556C3.67723 21.9046 4.32896 21.5953 4.8813 21.332C5.55176 21.0123 6.03615 20.7816 7.06769 20.7816C8.09935 20.7816 8.58388 21.0123 9.25434 21.332C9.92344 21.6509 10.7558 22.0477 12.0773 22.1319C12.8339 22.1794 13.4807 21.608 13.5285 20.8544C13.5767 20.1008 13.0046 19.451 12.2511 19.4032C11.456 19.3525 11.0035 19.1369 10.4308 18.8638C9.6675 18.5 8.71759 18.0472 7.06755 18.0472C5.41751 18.0472 4.46773 18.5002 3.70444 18.864C3.36524 19.0257 3.07335 19.1646 2.73429 19.2625V16.68C2.73484 15.9263 3.34801 15.313 4.10187 15.313ZM25.3613 67.2656H19.814L14.1956 62.4923L19.7177 60.2657L25.3613 66.1408V67.2656ZM12.0715 64.2756L15.5908 67.2656H10.6856L12.0715 64.2756ZM46.8243 63.7413L52.6762 65.6199L52.8017 67.2655H47.9589L46.8243 63.7413ZM55.544 67.2656L55.394 65.2988L58.8564 63.021L62.1275 67.2656H55.544ZM53.7646 63.0975L47.9249 61.2228L52.8702 58.1243L56.7977 61.1021L53.7646 63.0975ZM65.5796 67.2656L60.2476 60.3469C60.1737 60.2511 60.0872 60.1653 59.9907 60.0921L53.7701 55.3753C53.3174 55.0323 52.6996 55.0045 52.2181 55.3063L43.9808 60.4673C43.4506 60.7996 43.2137 61.4492 43.4054 62.0448L45.0862 67.2658H28.0956V65.5906C28.0956 65.2374 27.9591 64.8981 27.7145 64.6434L21.0495 57.705C20.6627 57.3025 20.0699 57.1753 19.5523 57.3841L11.0758 60.802C10.7536 60.9319 10.4927 61.1798 10.3466 61.4951L7.67184 67.2656H2.73484V54.8693C3.6775 54.7182 4.32924 54.409 4.88171 54.1457C5.55204 53.826 6.03643 53.5951 7.06796 53.5951C8.09949 53.5951 8.58388 53.826 9.25434 54.1457C10.0175 54.5095 10.9673 54.9624 12.6175 54.9624C14.2674 54.9624 15.2173 54.5095 15.9804 54.1457C16.6509 53.826 17.1353 53.5951 18.1668 53.5951C19.1983 53.5951 19.6827 53.826 20.3531 54.1457C21.1164 54.5095 22.0661 54.9624 23.7162 54.9624C25.3662 54.9624 26.3161 54.5095 27.0794 54.1455C27.7498 53.826 28.234 53.5951 29.2655 53.5951C29.6507 53.5951 29.9573 53.6293 30.215 53.6821V54.1781C30.215 54.3774 30.2585 54.5741 30.3427 54.7549L33.7607 62.1C33.985 62.5821 34.4685 62.8904 35.0001 62.8904C35.532 62.8904 36.0154 62.5821 36.2396 62.1L39.6576 54.7549C39.7416 54.5743 39.7853 54.3774 39.7853 54.1781V53.6821C40.043 53.6293 40.3496 53.5951 40.7348 53.5951C41.7663 53.5951 42.2507 53.826 42.9211 54.1457C43.6843 54.5095 44.6341 54.9624 46.2841 54.9624C47.9342 54.9624 48.8841 54.5095 49.6472 54.1457C50.3177 53.826 50.8021 53.5951 51.8336 53.5951C52.8651 53.5951 53.3495 53.826 54.0199 54.1457C54.7832 54.5095 55.7329 54.9624 57.383 54.9624C59.033 54.9624 59.9828 54.5095 60.7461 54.1457C61.4164 53.826 61.9008 53.5951 62.9323 53.5951C63.9639 53.5951 64.4483 53.826 65.1187 54.1457C65.6711 54.409 66.3229 54.7181 67.2656 54.8693V67.2656H65.5796Z" fill="white"/>
<path d="M11.3477 45.2881C12.1027 45.2881 12.7149 44.6759 12.7149 43.9209C12.7149 43.1659 12.1027 42.5537 11.3477 42.5537H11.3468C10.5918 42.5537 9.97998 43.1659 9.97998 43.9209C9.97998 44.6759 10.5926 45.2881 11.3477 45.2881Z" fill="white"/>
<path d="M24.4727 46.792C25.2277 46.792 25.8399 46.1798 25.8399 45.4248C25.8399 44.6698 25.2277 44.0576 24.4727 44.0576H24.4716C23.7167 44.0576 23.105 44.6698 23.105 45.4248C23.105 46.1798 23.7176 46.792 24.4727 46.792Z" fill="white"/>
<path d="M46.4844 44.126C47.2394 44.126 47.8516 43.5138 47.8516 42.7588C47.8516 42.0038 47.2394 41.3916 46.4844 41.3916H46.4833C45.7284 41.3916 45.1167 42.0038 45.1167 42.7588C45.1167 43.5138 45.7293 44.126 46.4844 44.126Z" fill="white"/>
<path d="M59.9507 47.0654C60.7057 47.0654 61.3179 46.4532 61.3179 45.6982C61.3179 44.9433 60.7057 44.3311 59.9507 44.3311H59.9498C59.1948 44.3311 58.583 44.9433 58.583 45.6982C58.583 46.4532 59.1956 47.0654 59.9507 47.0654Z" fill="white"/>
<path d="M18.1679 20.7822C18.9229 20.7822 19.5351 20.17 19.5351 19.415C19.5351 18.6601 18.9229 18.0479 18.1679 18.0479H18.1669C17.412 18.0479 16.8003 18.6601 16.8003 19.415C16.8003 20.17 17.4128 20.7822 18.1679 20.7822Z" fill="white"/>
</svg>
